REM DIRINDEX 1\2\3,1\2\4,1\2\5,1\2\6
REM DIRNAME cjc157,folder01,folder02,folder03,folder04,folder05
TITLE ""
FILE "041 041.mp3" MP3
  TRACK 01 AUDIO
    TITLE "0:"
    INDEX 01 00:00:00
  TRACK 02 AUDIO
    TITLE "3:cjc157_1553"
    INDEX 01 00:00:15
  TRACK 03 AUDIO
    TITLE "0:"
    INDEX 01 00:01:28
  TRACK 04 AUDIO
    TITLE "4:cjc157_1554"
    INDEX 01 00:01:73
  TRACK 05 AUDIO
    TITLE "0:"
    INDEX 01 00:03:10
  TRACK 06 AUDIO
    TITLE "5:cjc157_1555"
    INDEX 01 00:03:57
  TRACK 07 AUDIO
    TITLE "0:"
    INDEX 01 00:06:06
  TRACK 08 AUDIO
    TITLE "5:cjc157_1556"
    INDEX 01 00:06:53
  TRACK 09 AUDIO
    TITLE "0:"
    INDEX 01 00:08:72
  TRACK 10 AUDIO
    TITLE "3:cjc157_1557"
    INDEX 01 00:09:40
  TRACK 11 AUDIO
    TITLE "0:"
    INDEX 01 00:10:57
  TRACK 12 AUDIO
    TITLE "4:cjc157_1558"
    INDEX 01 00:11:25
  TRACK 13 AUDIO
    TITLE "0:"
    INDEX 01 00:12:24
  TRACK 14 AUDIO
    TITLE "5:cjc157_1559"
    INDEX 01 00:12:69
  TRACK 15 AUDIO
    TITLE "0:"
    INDEX 01 00:15:62
  TRACK 16 AUDIO
    TITLE "5:cjc157_1560"
    INDEX 01 00:16:30
  TRACK 17 AUDIO
    TITLE "0:"
    INDEX 01 00:17:69
  TRACK 18 AUDIO
    TITLE "3:cjc157_1561"
    INDEX 01 00:18:41
  TRACK 19 AUDIO
    TITLE "0:"
    INDEX 01 00:19:56
  TRACK 20 AUDIO
    TITLE "4:cjc157_1562"
    INDEX 01 00:20:28
  TRACK 21 AUDIO
    TITLE "0:"
    INDEX 01 00:21:39
  TRACK 22 AUDIO
    TITLE "5:cjc157_1563"
    INDEX 01 00:22:01
  TRACK 23 AUDIO
    TITLE "0:"
    INDEX 01 00:24:72
  TRACK 24 AUDIO
    TITLE "5:cjc157_1564"
    INDEX 01 00:25:37
  TRACK 25 AUDIO
    TITLE "0:"
    INDEX 01 00:29:03
  TRACK 26 AUDIO
    TITLE "3:cjc157_1565"
    INDEX 01 00:29:44
  TRACK 27 AUDIO
    TITLE "0:"
    INDEX 01 00:31:22
  TRACK 28 AUDIO
    TITLE "4:cjc157_1566"
    INDEX 01 00:31:67
  TRACK 29 AUDIO
    TITLE "0:"
    INDEX 01 00:32:72
  TRACK 30 AUDIO
    TITLE "5:cjc157_1567"
    INDEX 01 00:33:42
  TRACK 31 AUDIO
    TITLE "0:"
    INDEX 01 00:35:41
  TRACK 32 AUDIO
    TITLE "5:cjc157_1568"
    INDEX 01 00:36:13
  TRACK 33 AUDIO
    TITLE "0:"
    INDEX 01 00:39:51
  TRACK 34 AUDIO
    TITLE "3:cjc157_1569"
    INDEX 01 00:40:24
  TRACK 35 AUDIO
    TITLE "0:"
    INDEX 01 00:42:06
  TRACK 36 AUDIO
    TITLE "4:cjc157_1570"
    INDEX 01 00:42:51
  TRACK 37 AUDIO
    TITLE "0:"
    INDEX 01 00:43:62
  TRACK 38 AUDIO
    TITLE "5:cjc157_1571"
    INDEX 01 00:44:32
  TRACK 39 AUDIO
    TITLE "0:"
    INDEX 01 00:46:64
  TRACK 40 AUDIO
    TITLE "5:cjc157_1572"
    INDEX 01 00:47:36
  TRACK 41 AUDIO
    TITLE "0:"
    INDEX 01 00:49:31
  TRACK 42 AUDIO
    TITLE "5:cjc157_1573"
    INDEX 01 00:50:01
  TRACK 43 AUDIO
    TITLE "0:"
    INDEX 01 00:51:60
  TRACK 44 AUDIO
    TITLE "3:cjc157_1574"
    INDEX 01 00:52:28
  TRACK 45 AUDIO
    TITLE "0:"
    INDEX 01 00:53:29
  TRACK 46 AUDIO
    TITLE "4:cjc157_1575"
    INDEX 01 00:53:74
  TRACK 47 AUDIO
    TITLE "0:"
    INDEX 01 00:55:03
  TRACK 48 AUDIO
    TITLE "5:cjc157_1576"
    INDEX 01 00:55:46
  TRACK 49 AUDIO
    TITLE "0:"
    INDEX 01 00:58:09
  TRACK 50 AUDIO
    TITLE "3:cjc157_1577"
    INDEX 01 00:58:56
  TRACK 51 AUDIO
    TITLE "0:"
    INDEX 01 01:00:12
  TRACK 52 AUDIO
    TITLE "4:cjc157_1578"
    INDEX 01 01:00:59
  TRACK 53 AUDIO
    TITLE "0:"
    INDEX 01 01:03:39
  TRACK 54 AUDIO
    TITLE "5:cjc157_1579"
    INDEX 01 01:04:07
  TRACK 55 AUDIO
    TITLE "0:"
    INDEX 01 01:06:26
  TRACK 56 AUDIO
    TITLE "5:cjc157_1580"
    INDEX 01 01:07:02
  TRACK 57 AUDIO
    TITLE "0:"
    INDEX 01 01:08:68
  TRACK 58 AUDIO
    TITLE "5:cjc157_1581"
    INDEX 01 01:09:38
  TRACK 59 AUDIO
    TITLE "0:"
    INDEX 01 01:11:51
  TRACK 60 AUDIO
    TITLE "3:cjc157_1582"
    INDEX 01 01:12:21
  TRACK 61 AUDIO
    TITLE "0:"
    INDEX 01 01:13:51
  TRACK 62 AUDIO
    TITLE "4:cjc157_1583"
    INDEX 01 01:14:23
  TRACK 63 AUDIO
    TITLE "0:"
    INDEX 01 01:15:29
  TRACK 64 AUDIO
    TITLE "5:cjc157_1584"
    INDEX 01 01:16:03
  TRACK 65 AUDIO
    TITLE "0:"
    INDEX 01 01:18:45
  TRACK 66 AUDIO
    TITLE "3:cjc157_1585"
    INDEX 01 01:19:15
  TRACK 67 AUDIO
    TITLE "0:"
    INDEX 01 01:20:69
  TRACK 68 AUDIO
    TITLE "4:cjc157_1586"
    INDEX 01 01:21:39
  TRACK 69 AUDIO
    TITLE "0:"
    INDEX 01 01:22:62
  TRACK 70 AUDIO
    TITLE "5:cjc157_1587"
    INDEX 01 01:23:32
  TRACK 71 AUDIO
    TITLE "0:"
    INDEX 01 01:25:68
  TRACK 72 AUDIO
    TITLE "3:cjc157_1588"
    INDEX 01 01:26:40
  TRACK 73 AUDIO
    TITLE "0:"
    INDEX 01 01:27:69
  TRACK 74 AUDIO
    TITLE "4:cjc157_1589"
    INDEX 01 01:28:39
  TRACK 75 AUDIO
    TITLE "0:"
    INDEX 01 01:29:48
  TRACK 76 AUDIO
    TITLE "5:cjc157_1590"
    INDEX 01 01:30:17
  TRACK 77 AUDIO
    TITLE "0:"
    INDEX 01 01:32:37
  TRACK 78 AUDIO
    TITLE "5:cjc157_1591"
    INDEX 01 01:33:13
  TRACK 79 AUDIO
    TITLE "0:"
    INDEX 01 01:35:55
  TRACK 80 AUDIO
    TITLE "5:cjc157_1592"
    INDEX 01 01:36:43
  TRACK 81 AUDIO
    TITLE "0:"
    INDEX 01 01:39:00
